<svg width="451.164" height="531.164" xmlns="http://www.w3.org/2000/svg" xml:space="preserve" version="1.1" fill="#000000">

 <g>
  <title>Layer 1</title>
  <g id="svg_86">
   <g id="svg_31">
    <line transform="rotate(0.477937 219.378 182.462)" stroke="#000" stroke-width="14" stroke-linecap="undefined" stroke-linejoin="undefined" id="svg_27" y2="180.22407" x2="406.89499" y1="184.7002" x1="31.86015" fill="none"/>
    <path stroke="#000" id="svg_30" d="m37.88955,186.36316c-2.08333,-106.94416 85.41644,-174.99954 177.77731,-174.99954c92.36087,0 191.66616,49.99987 190.27728,177.08287" opacity="NaN" stroke-width="12" fill="none"/>
   </g>
   <ellipse transform="rotate(-13.4317 211.202 91.225)" stroke="#000" ry="1.34228" rx="8.38926" id="svg_46" cy="91.22454" cx="211.20155" stroke-width="7" fill="none"/>
   <ellipse transform="rotate(4.629 286.867 96.094)" ry="1.34228" rx="8.38926" id="svg_47" cy="96.09392" cx="286.86736" stroke-width="7" stroke="#000" fill="none"/>
   <ellipse transform="rotate(-4.1707 178.507 40.9863)" ry="1.34228" rx="8.38926" id="svg_48" cy="40.98629" cx="178.5071" stroke-width="7" stroke="#000" fill="none"/>
   <ellipse transform="rotate(-54.5212 112.96 66.9227)" stroke="#000" ry="1.34228" rx="8.38926" id="svg_49" cy="66.92271" cx="112.96033" stroke-width="7" fill="none"/>
   <ellipse transform="rotate(2.5519 236.641 60.484)" ry="1.34228" rx="8.38926" id="svg_50" cy="60.48396" cx="236.64138" stroke-width="7" stroke="#000" fill="none"/>
   <ellipse transform="rotate(17.1496 342.456 89.519)" ry="1.34228" rx="8.38926" id="svg_51" cy="89.51932" cx="342.45558" stroke-width="7" stroke="#000" fill="none"/>
   <ellipse transform="rotate(-113.235 294.208 62.6934)" ry="1.34228" rx="8.38926" id="svg_52" cy="62.69338" cx="294.20841" stroke-width="7" stroke="#000" fill="none"/>
   <ellipse transform="rotate(37.3928 243.939 32.8431)" ry="1.34228" rx="8.38926" id="svg_53" cy="32.84311" cx="243.93931" stroke-width="7" stroke="#000" fill="none"/>
   <ellipse transform="rotate(-18 158.407 81.6785)" ry="1.34228" rx="8.38926" id="svg_54" cy="81.67855" cx="158.40732" stroke-width="7" stroke="#000" fill="none"/>
   <ellipse transform="rotate(-6.66527 100.681 104.031)" stroke="#000" ry="1.34228" rx="8.38926" id="svg_85" cy="104.03127" cx="100.68057" stroke-width="7" fill="none"/>
  </g>
  <path id="svg_88" d="m20.08343,199.74918" opacity="NaN" stroke-width="7" stroke="#000" fill="none"/>
  <path id="svg_90" d="m-7.24976,343.74844" opacity="NaN" stroke-width="7" stroke="#000" fill="none"/>
  <path id="svg_89" d="m67.41655,224.74917c-71.33297,-0.66666 -59.99969,45.3331 -55.99971,49.33308c3.99998,3.99998 51.33307,1.99999 82.66624,-9.99995c31.33317,-11.99994 82.66624,-34.66649 123.3327,10.66661c40.66646,45.3331 103.99947,15.99992 134.66597,-19.9999c30.66651,-35.99981 53.99972,49.99974 79.33293,31.33317c25.3332,-18.66657 -3.33332,-59.33303 -23.99988,-63.33301c-20.66656,-3.99998 -268.66529,2.66665 -339.99825,1.99999z" stroke-width="13" stroke="#000" fill="none"/>
  <path id="svg_93" d="m33.75007,348.74886c-1.33333,43.3331 107.16573,32.49945 196.58213,32.91631c89.4164,0.41686 182.74925,7.75015 183.41592,-32.91631c0.66666,-40.66646 -94.66618,-35.33318 -185.99904,-35.33318c-91.33286,0 -192.66568,-7.99992 -193.999,35.33318z" stroke-width="13" stroke="#000" fill="none"/>
  <path id="svg_95" d="m41.4167,428.41516c0,99.33282 41.99978,83.99957 186.6657,83.99957c9.04162,0 87.29383,0.16406 123.61884,-0.07356c36.32501,-0.23763 58.05602,-40.87675 56.72139,-78.48333c-1.33463,-37.60658 -105.29896,-24.81758 -174.56942,-26.44257c-69.27046,-1.62499 -169.35329,-2.83332 -190.43651,17.49991c-21.08322,20.33324 147.99923,20.20823 201.97812,20.66657c53.97889,0.45833 120.52023,0.49999 160.68668,-15.16659" stroke-width="13" stroke="#000" fill="none"/>
  <path stroke="#000" id="svg_105" d="m107.30262,334.42066l232.63657,0l0,0c30.47605,0 55.18172,6.26802 55.18172,14c0,7.73198 -24.70567,14 -55.18172,14l-232.63657,0l0,0c-30.47602,0 -55.18172,-6.26801 -55.18172,-14c0,-7.73199 24.7057,-14 55.18172,-14z" stroke-width="44" fill="none"/>
  <path transform="rotate(-26.1551 133.897 331.707)" stroke="#ffffff" id="svg_118" d="m117.32426,331.04052l33.14527,0l0,0c4.34212,0 7.8621,0.29849 7.8621,0.66669c0,0.3682 -3.51998,0.66669 -7.8621,0.66669l-33.14527,0l0,0c-4.34212,0 -7.8621,-0.29849 -7.8621,-0.66669c0,-0.3682 3.51998,-0.66669 7.8621,-0.66669z" stroke-width="6" fill="none"/>
  <path transform="rotate(-26.1551 217.914 334.388)" stroke="#ffffff" id="svg_119" d="m193.65123,333.721l48.52501,0l0,0c6.35692,0 11.51021,0.29848 11.51021,0.66668c0,0.3682 -5.15329,0.66669 -11.51021,0.66669l-48.52501,0l0,0c-6.3569,0 -11.5102,-0.29849 -11.5102,-0.66669c0,-0.3682 5.15329,-0.66668 11.5102,-0.66668z" stroke-width="6" fill="none"/>
  <path transform="rotate(-26.1551 301.658 331.163)" stroke="#ffffff" id="svg_120" d="m285.29209,330.49662l32.73216,0l0,0c4.28801,0 7.76412,0.29848 7.76412,0.66668c0,0.3682 -3.47611,0.66669 -7.76412,0.66669l-32.73216,0l0,0c-4.288,0 -7.76411,-0.29849 -7.76411,-0.66669c0,-0.3682 3.47611,-0.66668 7.76411,-0.66668z" stroke-width="6" fill="none"/>
 </g>
</svg>