<svg xmlns="http://www.w3.org/2000/svg" version="1.1" xmlns:xlink="http://www.w3.org/1999/xlink" xmlns:svgjs="http://svgjs.dev/svgjs" width="2000" height="1250" viewBox="0 0 2000 1250"><g transform="matrix(1,0,0,1,0,0)"><svg viewBox="0 0 512 320" data-background-color="#f0eee9" preserveAspectRatio="xMidYMid meet" height="1250" width="2000" xmlns="http://www.w3.org/2000/svg" xmlns:xlink="http://www.w3.org/1999/xlink"><g id="tight-bounds" transform="matrix(1,0,0,1,0,0)"><svg viewBox="0 0 512 320" height="320" width="512"><g><svg></svg></g><g><svg viewBox="0 0 512 320" height="320" width="512"><g><path d="M96 160c0-88.366 71.634-160 160-160 88.366 0 160 71.634 160 160 0 88.366-71.634 160-160 160-88.366 0-160-71.634-160-160zM256 306.799c81.075 0 146.799-65.724 146.799-146.799 0-81.075-65.724-146.799-146.799-146.799-81.075 0-146.799 65.724-146.799 146.799 0 81.075 65.724 146.799 146.799 146.799z" fill="#2a2c35" fill-rule="nonzero" stroke="none" stroke-width="1" stroke-linecap="butt" stroke-linejoin="miter" stroke-miterlimit="10" stroke-dasharray="" stroke-dashoffset="0" font-family="none" font-weight="none" font-size="none" text-anchor="none" style="mix-blend-mode: normal" data-fill-palette-color="tertiary"></path></g><g transform="matrix(1,0,0,1,116,20)"><svg viewBox="0 0 280 280" height="280" width="280"><g><svg viewBox="0 0 280 280" height="280" width="280"><g><svg viewBox="0 0 280 280" height="280" width="280"><g id="textblocktransform"><svg viewBox="0 0 280 280" height="280" width="280" id="textblock"><g><svg viewBox="0 0 280 280" height="280" width="280"><g transform="matrix(1,0,0,1,106.50941581411203,90.50252531694167)"><svg viewBox="0 0 66.98116837177594 98.99494936611666" height="98.99494936611666" width="66.98116837177594"><g id="icon-0"><svg xmlns="http://www.w3.org/2000/svg" xmlns:xlink="http://www.w3.org/1999/xlink" version="1.1" x="0" y="0" viewBox="2.126762963178249 2.321034842253423 64.94200313923662 95.98116110515468" enable-background="new 0 0 68.335 100" xml:space="preserve" height="98.99494936611666" width="66.98116837177594" class="icon-xg-0" data-fill-palette-color="accent" id="xg-0"><g fill="#2a2c35" data-fill-palette-color="accent"><path fill-rule="evenodd" clip-rule="evenodd" d="M17.084 2.356c0.053 0.006 0.976 0.369 1.104 0.663 0.177 0.405 0.144 1.758 0.221 2.578 2.323 24.724 4.529 48.322 6.922 73.049 0.129 1.336 0.759 4.242 0.294 4.934-0.295 0.438-3.026 1.212-3.977 0.662-0.648-0.374-0.864-2.481-1.104-3.534-1.893-8.275-3.528-16.216-5.081-24.963-0.058-0.328-0.199-1.771-0.368-1.915-0.491-0.416-1.515 1.252-1.62 1.547-0.789 2.209-1.434 5.528-1.988 7.879-2.37 10.048-4.48 19.13-6.848 29.234-0.253 1.081-0.676 1.955-0.294 2.798 0.636 1.403 4.122 1.039 6.48 0.957 6.589-0.228 11.766-0.285 18.188-0.589 1.389-0.065 3.082-0.372 3.535 0.074 0.426 0.419 0.424 1.796-0.074 2.135-0.593 0.404-2.602 0.147-3.608 0.147-6.346 0-11.939 0.147-18.336 0.147-2.648 0-7.259 0.749-8.174-1.179-0.634-1.335 0.208-3.981 0.589-5.596 2.548-10.778 5.064-21.211 7.732-31.959 0.73-2.94 1.064-5.448 3.093-6.849 0.408-0.281 0.97-0.464 1.031-0.662 0.105-0.345-0.398-1.951-0.516-2.725-0.974-6.403-1.187-14.074-0.884-21.502 0.147-3.585 0.055-8.748 0.221-12.519 0.078-1.762 0.074-3.911 0.074-6.407 0-1.647-0.241-5.138 0.368-5.891C14.439 2.409 16.121 2.241 17.084 2.356zM17.894 26.657c-0.378 0.371 0.085 2.658 0.147 3.387 0.639 7.53 1.272 14.987 1.915 22.46 0.008 0.093 0.1 1.463 0.368 1.546 0.144 0.045 0.526-0.207 0.589-0.368 0.054-0.139-0.058-0.702-0.074-0.884-0.737-8.452-1.434-16.077-2.356-24.447-0.082-0.746-0.1-1.76-0.442-1.694C18.014 26.662 17.913 26.639 17.894 26.657zM21.576 59.205c0.139-0.307-0.477-3.132-0.589-3.461-0.033-0.096-0.506 0.129-0.516 0.146-0.101 0.2 0.104 0.718 0.147 1.031 0.122 0.874 0.213 1.673 0.368 2.577C21.087 59.407 21.516 59.337 21.576 59.205z" fill="#2a2c35" data-fill-palette-color="accent"></path><path fill-rule="evenodd" clip-rule="evenodd" d="M54.787 90.942c4.725-0.511 10.577 1.015 12.003 4.565 0.057 0.141 0.492 2.141 0.147 2.431-0.21 0.176-2.023 0-2.578 0-5.351 0-9.993 0-15.464 0-0.648 0-2.353 0.162-2.577 0-0.306-0.221-0.186-2.155 0.147-2.356 0.454-0.274 3.435 0 4.124 0 0.698 0 3.44 0.314 3.977-0.074 0.35-0.254 0.221-1.398 0.221-2.209C54.787 92.507 54.787 92.061 54.787 90.942z" fill="#2a2c35" data-fill-palette-color="accent"></path><path fill-rule="evenodd" clip-rule="evenodd" d="M53.682 94.624c-2.209 0-4.419 0-6.628 0 0.996-1.813 4.029-3.052 6.407-3.534 0.485-0.099 0.294 1.218 0.294 1.768C53.755 93.573 53.811 94.173 53.682 94.624z" fill="#2a2c35" data-fill-palette-color="accent"></path></g></svg></g></svg></g><g id="text-0"><path d="M30.879 106.744l-2.776 7.507-0.508-0.234 0.467-2.039c0.041-0.184-0.065-0.394-0.317-0.63v0l-21.839-17.376 0.925-2.464 28.601 0.954 1.113-2.51c0.025 0.009 0.207 0.092 0.545 0.247v0l-2.761 7.47c-0.224-0.084-0.393-0.162-0.509-0.233v0l0.467-2.039c0.05-0.208-0.062-0.364-0.335-0.467v0l-6.846-0.228-4.365 11.627 5.743 4.413 1.849-4.246c0.025 0.009 0.207 0.092 0.546 0.248zM26.262 94.683l-19.548-0.706 15.365 11.848z" fill="#2a2c35" data-fill-palette-color="primary"></path><path d="M132.445 0.075l8.004-0.075c0 0.027 0.014 0.226 0.042 0.598v0l-2.75 0.251 0.117 26.234 10.984-0.049 0.769-6.373 0.758 0.196-0.567 6.97-9.229 0.041-8.004 0.076 0.038-0.559 2.062-0.288c0.266-0.028 0.424-0.201 0.476-0.52v0l-0.112-25.197c-0.055-0.319-0.215-0.491-0.481-0.517v0l-2.064-0.19z" fill="#2a2c35" data-fill-palette-color="primary"></path><path d="M270.08 85.363l-0.538-2.047 0.572-0.18 3.511 9.051c1.298 3.345 1.365 6.402 0.201 9.17-1.155 2.772-3.923 5.007-8.303 6.707v0c-4.33 1.68-7.847 2.232-10.551 1.656v0c-2.358-0.511-4.293-1.98-5.805-4.408v0c-0.65-1.088-1.278-2.412-1.884-3.974v0l-0.27-0.697-2.932-7.447 0.535-0.165 1.006 1.823c0.121 0.238 0.34 0.324 0.656 0.258v0l23.454-9.099c0.303-0.175 0.419-0.391 0.348-0.648zM272.996 92.218v0l-1.54-3.968-24.866 9.647 1.182 3.048c0.459 1.183 0.918 2.163 1.377 2.941 0.458 0.777 1.117 1.52 1.975 2.227 0.856 0.701 1.829 1.14 2.917 1.317v0c2.597 0.447 6.035-0.161 10.316-1.822v0c4.454-1.728 7.266-3.831 8.435-6.309v0c1.087-2.268 1.155-4.628 0.204-7.081z" fill="#2a2c35" data-fill-palette-color="primary"></path><path d="M12.214 188.147l-2.846-7.47 0.537-0.159 0.986 1.834c0.09 0.165 0.308 0.253 0.653 0.266v0l27.841-1.271 0.921 2.454-22.134 18.068 0.814 2.622c-0.025 0.009-0.216 0.067-0.574 0.173v0l-2.828-7.423c0.224-0.084 0.403-0.137 0.536-0.159v0l0.987 1.834c0.1 0.19 0.286 0.233 0.56 0.13v0l5.298-4.32-4.359-11.618-7.216 0.461 1.398 4.405c-0.025 0.009-0.216 0.067-0.574 0.173zM23.614 194.185l15.16-12.311-19.338 1.178z" fill="#2a2c35" data-fill-palette-color="primary"></path><path d="M132.607 252.136l7.994-0.005c0 0.027 0.012 0.226 0.037 0.598v0l-2.742 0.227-0.116 26.194 10.974 0.048 0.826-6.355 0.746 0.203-0.629 6.954-9.219-0.041-7.994 0.005 0.042-0.558 2.075-0.27c0.266-0.025 0.426-0.197 0.481-0.516v0l0.111-25.157c-0.052-0.319-0.21-0.493-0.476-0.521v0l-2.073-0.208z" fill="#2a2c35" data-fill-palette-color="primary"></path><path d="M238.311 190.172l-0.987 1.883-0.543-0.253 3.51-9.051c1.293-3.333 3.299-5.63 6.019-6.892 2.72-1.261 6.267-1.044 10.64 0.652v0c4.324 1.677 7.289 3.635 8.893 5.875v0c1.397 1.967 1.836 4.354 1.318 7.161v0c-0.253 1.242-0.682 2.64-1.284 4.195v0l-0.274 0.706-2.853 7.467-0.506-0.239 0.489-2.034c0.071-0.257-0.032-0.469-0.31-0.633v0l-23.419-9.081c-0.341-0.075-0.573 0.006-0.693 0.244zM240.776 183.153v0l-1.538 3.968 24.83 9.629 1.179-3.039c0.459-1.183 0.781-2.216 0.967-3.099 0.186-0.883 0.202-1.871 0.048-2.964-0.157-1.102-0.581-2.085-1.271-2.952v0c-1.613-2.072-4.556-3.937-8.831-5.595v0c-4.448-1.725-7.938-2.07-10.471-1.035v0c-2.326 0.944-3.963 2.639-4.913 5.087z" fill="#2a2c35" data-fill-palette-color="primary"></path><path d="M3.765 143.948c0-5.879 4.766-10.646 10.645-10.646 5.879 0 10.646 4.766 10.646 10.646 0 5.879-4.766 10.646-10.646 10.645-5.879 0-10.646-4.766-10.645-10.645z" fill="#2a2c35" data-fill-palette-color="primary"></path><path d="M254.944 143.948c0-5.879 4.766-10.646 10.646-10.646 5.879 0 10.646 4.766 10.645 10.646 0 5.879-4.766 10.646-10.645 10.645-5.879 0-10.646-4.766-10.646-10.645z" fill="#2a2c35" data-fill-palette-color="primary"></path></g><g id="text-1"></g></svg></g></svg></g></svg></g></svg></g></svg></g></svg></g><defs></defs></svg><rect width="512" height="320" fill="none" stroke="none" visibility="hidden"></rect></g></svg></g></svg>