<svg width="451.164" height="531.164" xmlns="http://www.w3.org/2000/svg" fill="#000000" version="1.1" xml:space="preserve">
 <g>
  <title>Layer 1</title>
  <g id="svg_86">
   <g id="svg_31">
    <line transform="rotate(0.477937 218.616 264.891)" fill="none" x1="31.09825" y1="267.12877" x2="406.13309" y2="262.65264" id="svg_27" stroke-linejoin="undefined" stroke-linecap="undefined" stroke-width="14" stroke="#000"/>
    <path fill="none" stroke-width="12" opacity="NaN" d="m37.12765,268.79173c-2.08333,-106.94416 85.41644,-174.99954 177.77731,-174.99954c92.36087,0 191.66616,49.99987 190.27728,177.08287" id="svg_30" stroke="#000"/>
   </g>
   <ellipse transform="rotate(-13.4317 210.44 173.654)" fill="none" stroke-width="7" cx="210.43965" cy="173.65311" id="svg_46" rx="8.38926" ry="1.34228" stroke="#000"/>
   <ellipse transform="rotate(4.629 286.105 178.523)" fill="none" stroke="#000" stroke-width="7" cx="286.10546" cy="178.52249" id="svg_47" rx="8.38926" ry="1.34228"/>
   <ellipse transform="rotate(-4.1707 177.745 123.415)" fill="none" stroke="#000" stroke-width="7" cx="177.7452" cy="123.41486" id="svg_48" rx="8.38926" ry="1.34228"/>
   <ellipse transform="rotate(-54.5212 112.198 149.351)" fill="none" stroke-width="7" cx="112.19843" cy="149.35128" id="svg_49" rx="8.38926" ry="1.34228" stroke="#000"/>
   <ellipse transform="rotate(2.5519 235.879 142.913)" fill="none" stroke="#000" stroke-width="7" cx="235.87948" cy="142.91253" id="svg_50" rx="8.38926" ry="1.34228"/>
   <ellipse transform="rotate(17.1496 341.694 171.948)" fill="none" stroke="#000" stroke-width="7" cx="341.69368" cy="171.94789" id="svg_51" rx="8.38926" ry="1.34228"/>
   <ellipse transform="rotate(-113.235 293.446 145.122)" fill="none" stroke="#000" stroke-width="7" cx="293.44651" cy="145.12195" id="svg_52" rx="8.38926" ry="1.34228"/>
   <ellipse transform="rotate(37.3928 243.177 115.272)" fill="none" stroke="#000" stroke-width="7" cx="243.17741" cy="115.27168" id="svg_53" rx="8.38926" ry="1.34228"/>
   <ellipse transform="rotate(-18 157.645 164.107)" fill="none" stroke="#000" stroke-width="7" cx="157.64542" cy="164.10712" id="svg_54" rx="8.38926" ry="1.34228"/>
   <ellipse transform="rotate(-6.66527 99.9191 186.46)" fill="none" stroke-width="7" cx="99.91867" cy="186.45984" id="svg_85" rx="8.38926" ry="1.34228" stroke="#000"/>
  </g>
  <path fill="none" stroke="#000" stroke-width="7" opacity="NaN" d="m15.32153,121.17775" id="svg_88"/>
  <path fill="none" stroke="#000" stroke-width="7" opacity="NaN" d="m-7.24976,343.74844" id="svg_90"/>
  <path fill="none" stroke="#000" stroke-width="13" d="m36.6548,349.84373c0,99.33282 41.99978,83.99957 186.6657,83.99957c9.04162,0 87.29383,0.16406 123.61884,-0.07356c36.32501,-0.23763 58.05602,-40.87675 56.72139,-78.48333" id="svg_95"/>
  <g id="svg_6">
   <path fill="none" stroke="#000" stroke-width="13" d="m67.65465,273.17774c-71.33297,-0.66666 -59.99969,45.3331 -55.99971,49.33308c3.99998,3.99998 51.33307,1.99999 82.66624,-9.99995c31.33317,-11.99994 82.66624,-34.66649 123.3327,10.66661c40.66646,45.3331 103.99947,15.99992 134.66597,-19.9999c30.66651,-35.99981 53.99972,49.99974 79.33293,31.33317c25.3332,-18.66657 -3.33332,-59.33303 -23.99988,-63.33301c-20.66656,-3.99998 -268.66529,2.66665 -339.99825,1.99999l0,0.00001z" id="svg_89"/>
   <path id="svg_2" d="m32.32211,332.4794" opacity="NaN" stroke-width="13" stroke="#000" fill="none"/>
   <path id="svg_5" d="m32.97147,337.67428c-0.64936,25.32503 133.11875,11.68847 212.34064,14.93527c79.22189,3.2468 166.72113,9.18517 161.77174,-9.85229c-4.94939,-19.03746 11.6073,7.9042 -15.01644,-12.22594c-6.65594,-5.03253 -21.59122,-28.12539 -32.78253,-21.80428c-5.59566,3.16055 -10.28031,18.03278 23.96924,27.57369c34.24955,9.54091 -63.44827,16.24795 -39.48284,9.57171c23.96544,-6.67624 34.65958,-39.36743 5.43839,-21.83471c-29.22119,17.53271 -12.98719,31.16926 -79.87125,27.2731c-33.44203,-1.94808 -51.13708,-18.18207 -76.78679,-31.49395c-25.64971,-13.31188 -39.16452,-14.8541 -110.71584,5.80366c-71.55133,20.65776 -11.06193,15.40455 17.06092,16.08688c28.12285,0.68233 64.56436,-9.90401 110.45266,1.01145c45.8883,10.91546 -23.45368,-30.04494 -65.33739,-18.68114c-41.88371,11.36379 -110.39116,-11.68848 -111.04052,13.63655z" stroke-width="17" stroke="#000" fill="none"/>
  </g>
 </g>

</svg>